<svg width="32" height="32" viewBox="0 0 32 32" fill="none" xmlns="http://www.w3.org/2000/svg">
<path fill-rule="evenodd" clip-rule="evenodd" d="M7.05718 7.05727C7.57788 6.53657 8.4221 6.53657 8.9428 7.05727L16 14.1145L23.0572 7.05727C23.5779 6.53657 24.4221 6.53657 24.9428 7.05727C25.4635 7.57797 25.4635 8.42219 24.9428 8.94289L17.8856 16.0001L24.9428 23.0573C25.4635 23.578 25.4635 24.4222 24.9428 24.9429C24.4221 25.4636 23.5779 25.4636 23.0572 24.9429L16 17.8857L8.9428 24.9429C8.4221 25.4636 7.57788 25.4636 7.05718 24.9429C6.53648 24.4222 6.53648 23.578 7.05718 23.0573L14.1144 16.0001L7.05718 8.94289C6.53648 8.42219 6.53648 7.57797 7.05718 7.05727Z" fill="#777E91"/>
</svg>
